<?xml version="1.0" standalone="no"?>
<!DOCTYPE svg PUBLIC "-//W3C//DTD SVG 20010904//EN"
 "http://www.w3.org/TR/2001/REC-SVG-20010904/DTD/svg10.dtd">
<svg version="1.0" xmlns="http://www.w3.org/2000/svg"
 width="100.000000pt" height="100.000000pt" viewBox="0 0 100.000000 100.000000"
 preserveAspectRatio="xMidYMid meet">
<metadata>
Created by potrace 1.14, written by Peter Selinger 2001-2017
</metadata>
<g transform="translate(0.000000,100.000000) scale(0.100000,-0.100000)"
fill="#000000" stroke="none">
<path d="M0 500 l0 -500 500 0 500 0 0 500 0 500 -500 0 -500 0 0 -500z m540
395 c30 -30 59 -55 64 -55 5 0 23 12 38 27 l28 27 53 -52 53 -52 73 0 c55 0
72 -3 68 -12 -30 -71 -152 -336 -160 -345 -7 -10 -63 -13 -218 -13 l-209 0 0
-29 c0 -58 11 -61 236 -61 l204 0 0 -40 0 -40 -207 0 c-178 0 -213 3 -243 18
-56 28 -70 68 -70 202 0 105 -3 125 -33 215 l-34 100 -46 7 c-56 8 -67 14 -67
37 0 30 22 41 82 41 49 0 63 -4 83 -25 14 -13 25 -31 25 -40 0 -10 9 -15 26
-15 20 0 48 21 108 80 44 44 83 80 86 80 3 0 30 -25 60 -55z m-125 -705 c0 -8
-8 -16 -17 -18 -13 -2 -18 3 -18 18 0 15 5 20 18 18 9 -2 17 -10 17 -18z m310
-1 c0 -7 -8 -15 -17 -17 -18 -3 -25 18 -11 32 10 10 28 1 28 -15z"/>
</g>
</svg>
